<?xml version="1.0" standalone="no"?>
<!DOCTYPE svg PUBLIC "-//W3C//DTD SVG 20010904//EN"
 "http://www.w3.org/TR/2001/REC-SVG-20010904/DTD/svg10.dtd">
<svg version="1.0" xmlns="http://www.w3.org/2000/svg"
 width="219.000000pt" height="210.000000pt" viewBox="0 0 219.000000 210.000000"
 preserveAspectRatio="xMidYMid meet">

<g transform="translate(0.000000,210.000000) scale(0.100000,-0.100000)"
fill="#fff" stroke="none">
<path d="M0 1050 l0 -1050 1095 0 1095 0 0 1050 0 1050 -1095 0 -1095 0 0
-1050z m1300 945 c285 -60 523 -245 655 -510 269 -540 -8 -1173 -591 -1351
-81 -25 -104 -28 -254 -28 -142 -1 -177 2 -248 22 -333 91 -591 345 -682 673
-64 231 -39 472 70 689 143 282 416 475 735 520 76 11 226 4 315 -15z"/>
<path d="M1004 1860 c-33 -13 -54 -50 -54 -96 0 -35 5 -47 31 -68 52 -44 125
-33 154 24 24 46 19 78 -19 116 -35 35 -68 42 -112 24z"/>
<path d="M973 1565 c-29 -8 -78 -28 -110 -43 -47 -24 -63 -28 -83 -20 -14 6
-55 10 -92 11 -92 0 -177 -41 -242 -117 -25 -30 -46 -57 -46 -60 0 -4 21 4 48
18 26 13 71 31 101 40 58 17 151 22 151 7 0 -4 -21 -39 -47 -77 -100 -149
-146 -284 -147 -434 -1 -291 178 -518 454 -576 267 -56 483 89 484 326 1 98
-32 168 -111 239 -82 73 -237 141 -324 141 -46 0 -53 14 -25 54 56 83 60 181
13 278 -15 30 -27 60 -27 65 0 20 88 36 169 31 120 -7 222 -66 252 -147 23
-59 -24 -124 -117 -162 -125 -52 -79 -166 61 -152 69 7 168 -20 232 -63 157
-107 164 -269 17 -403 -51 -47 -55 -53 -31 -47 119 29 234 125 256 212 34 133
-95 326 -266 401 -34 15 -63 31 -63 34 0 4 13 36 30 71 65 137 16 259 -137
337 -97 49 -288 66 -400 36z m-87 -267 c39 -76 -16 -169 -184 -310 -37 -30
-42 -66 -14 -92 17 -14 37 -15 163 -10 121 6 154 4 204 -10 179 -53 280 -169
261 -301 -6 -40 -14 -50 -54 -80 -105 -78 -229 -84 -362 -19 -89 44 -194 143
-231 219 -21 44 -24 63 -24 170 0 96 4 134 22 190 24 76 77 169 136 239 42 50
59 51 83 4z"/>
</g>
</svg>
